<svg xmlns="http://www.w3.org/2000/svg" viewBox="0 0 1920 700"><defs><style>.cls-1{fill:#01a2e6;}.cls-2{fill:none;}</style></defs><g id="object"><path class="cls-1" d="M1555.26,581.16a100.12,100.12,0,0,1-43.46-10C1477,554.67,1446,517.55,1416,481.66c-7.44-8.9-15.13-18.1-22.74-26.83-56.57-64.84-116.46-110.8-178-136.61-65.42-27.44-129.82-30.68-191.41-9.63-58.93,20.15-116,62.85-171.27,104.13-39,29.12-79.22,59.22-119.9,81.28-53.49,29-106.57,39.19-153.49,29.47C524,512,479.22,474.12,446,410.78c-4.67-8.9-9.18-18.46-13.53-27.72-9.24-19.6-18.78-39.87-30.35-54.79-11.71-15.11-25.67-24.45-40.38-27S332.25,303,319,313.73c-14.59,11.82-27.44,30.93-39.86,49.41C271.18,375,263,387.22,254.31,397.5c-16.79,20-35.77,31.95-56.41,35.62-19.39,3.44-39.74-.9-58.85-12.56S102.13,390,87.59,365.84c-15.49-25.7-27-56.3-34.22-90.93C44.74,233.48,41.7,188,38.75,144.09c-2.63-39.35-5.36-80-12.08-117.79-7.16-40.18-22.48-77.47-41-99.77-20.48-24.66-41.51-27.32-59.21-7.45l-.14-.81c17.79-20,38.92-17.32,59.5,7.46C4.41-51.88,19.79-14.43,27,25.93c6.75,37.86,9.48,78.6,12.12,118,2.94,43.88,6,89.25,14.58,130.55,7.18,34.5,18.66,65,34.1,90.61,14.51,24.08,32.27,43,51.35,54.6s39.4,16,58.75,12.53c20.59-3.65,39.53-15.61,56.28-35.53,8.63-10.27,16.85-22.5,24.8-34.32,12.43-18.51,25.29-37.64,39.93-49.5,13.3-10.77,28.12-15.1,42.88-12.52s28.77,12,40.52,27.12c11.6,15,21.16,35.27,30.41,54.9,4.35,9.24,8.85,18.8,13.51,27.69,33.16,63.23,77.92,101.09,133,112.52,46.89,9.72,99.93-.47,153.39-29.46,40.67-22.05,80.93-52.15,119.87-81.26,55.24-41.3,112.36-84,171.33-104.15,61.62-21.07,126.05-17.83,191.5,9.62,61.58,25.83,121.49,71.81,178.09,136.68,7.62,8.73,15.31,17.93,22.74,26.83,30,35.88,61,73,95.7,89.48,32.8,15.61,68.68,12.83,106.62-8.26,33-18.32,66.48-49.69,99.6-93.24s63.91-95.17,93.7-145.11c24.93-41.79,50.71-85,77.74-123.31,32.74-46.4,65.38-81.29,97-103.72,37.19-26.37,73-35.4,106.45-26.82l0,.88c-33.4-8.56-69.17.46-106.33,26.8-31.61,22.4-64.23,57.27-96.94,103.64-27,38.28-52.79,81.49-77.72,123.27-29.79,50-60.6,101.61-93.73,145.16s-66.69,75-99.69,93.32C1596.72,575.08,1575.55,581.16,1555.26,581.16Z"/><path class="cls-1" d="M1545.89,594.34a96.41,96.41,0,0,1-42.45-9.91c-34.77-16.82-65.91-55-96-92-7.46-9.16-15.18-18.63-22.82-27.61-56.78-66.72-116.77-113.83-178.29-140-65.4-27.83-129.65-30.57-191-8.13C956.67,338.16,900,383,845.09,426.36c-38.68,30.58-78.68,62.2-119.13,85.48-53.2,30.6-106.08,41.68-152.94,32.05-55.1-11.33-100-50.24-133.49-115.63-4.7-9.19-9.25-19.06-13.64-28.62-9.32-20.25-18.95-41.18-30.57-56.55-11.76-15.56-25.74-25.12-40.42-27.65s-29.41,2.09-42.58,13.36c-14.49,12.4-27.19,32.35-39.48,51.65-7.87,12.36-16,25.13-24.57,35.88-16.64,20.88-35.5,33.5-56.07,37.5-19.32,3.75-39.64-.55-58.77-12.46S96.45,410,81.8,385.09c-15.59-26.51-27.24-58.14-34.62-94-8.84-42.89-12.12-90-15.3-135.56-2.85-40.8-5.79-83-12.71-122.1C10.79-13.95-8.53-57.75-30-78.16c-12.73-12.06-32-21.63-51.33,1.31l-.14-.8C-62-100.72-42.7-91.11-29.92-79c21.6,20.49,41,64.47,49.41,112.06,6.93,39.2,9.88,81.45,12.73,122.3,3.17,45.49,6.45,92.54,15.26,135.31,7.36,35.72,19,67.24,34.52,93.68,14.61,24.84,32.42,44.26,51.51,56.14s39.38,16.19,58.67,12.44c20.52-4,39.34-16.57,55.94-37.41,8.54-10.72,16.67-23.49,24.54-35.84,12.3-19.32,25-39.3,39.55-51.73,13.21-11.31,28-15.93,42.71-13.41s28.76,12.14,40.56,27.75c11.65,15.42,21.3,36.39,30.63,56.67,4.4,9.54,8.94,19.41,13.63,28.59C473.17,492.84,518,531.68,573.05,543c46.82,9.62,99.67-1.45,152.83-32,40.44-23.27,80.43-54.88,119.11-85.46,54.87-43.37,111.61-88.22,170.3-109.7,61.35-22.45,125.63-19.71,191.07,8.14,61.55,26.2,121.57,73.33,178.38,140.08,7.64,9,15.36,18.46,22.83,27.62,30.09,36.93,61.21,75.11,95.93,91.91,32.81,15.87,68.57,12.64,106.3-9.6,32.78-19.33,66-52.2,98.82-97.69s63.23-99.35,92.66-151.45c24.64-43.6,50.11-88.68,76.85-128.67,32.4-48.45,64.77-85,96.2-108.54,37-27.71,72.63-37.41,106-28.85l0,.88c-33.36-8.56-69,1.14-105.89,28.82-31.41,23.55-63.75,60-96.12,108.45-26.74,40-52.2,85-76.83,128.64-29.44,52.11-59.89,106-92.69,151.5s-66.1,78.43-98.91,97.77C1587.82,587.83,1566.42,594.34,1545.89,594.34Z"/><path class="cls-1" d="M1536.6,607.53a93.06,93.06,0,0,1-41.53-9.88c-34.77-17.11-66-56.41-96.27-94.41-7.49-9.42-15.24-19.17-22.91-28.39-57-68.61-117.07-116.86-178.58-143.42-65.38-28.23-129.48-30.47-190.51-6.65C948.4,347.57,892.06,394.56,837.57,440c-38.42,32-78.15,65.18-118.37,89.67-52.9,32.21-105.59,44.18-152.37,34.64-55-11.23-100-51.13-133.77-118.57-4.74-9.47-9.32-19.66-13.75-29.51-9.41-20.9-19.13-42.51-30.8-58.33-11.81-16-25.81-25.78-40.47-28.27s-29.32,2.44-42.39,14.24c-14.38,13-26.95,33.78-39.1,53.88-7.79,12.88-15.83,26.19-24.32,37.41-16.49,21.79-35.23,35-55.72,39.38-19.26,4.08-39.55-.21-58.69-12.37S90.76,430,76,404.34c-15.69-27.33-27.48-60-35-97.07-9-44.35-12.57-93.13-16-140.31C21.94,124.71,18.78,81,11.68,40.56c-8.84-50.28-28.85-96-51-116.41C-51.75-87.32-70.5-96.09-89.19-72.77l-.15-.8C-70.54-97-51.7-88.21-39.2-76.68-17-56.17,3.12-10.29,12,40.2c7.13,40.55,10.29,84.3,13.35,126.6,3.41,47.11,6.94,95.83,16,140.06,7.53,36.95,19.28,69.5,34.93,96.75,14.7,25.61,32.57,45.56,51.68,57.7s39.37,16.41,58.58,12.34c20.44-4.33,39.15-17.54,55.59-39.28,8.47-11.2,16.51-24.5,24.29-37.36,12.17-20.14,24.75-40.95,39.18-54,13.11-11.83,27.82-16.78,42.53-14.28s28.75,12.3,40.6,28.37c11.71,15.87,21.45,37.51,30.86,58.44,4.44,9.84,9,20,13.75,29.48C467,512.38,511.9,552.21,566.86,563.42c46.75,9.55,99.4-2.42,152.26-34.61,40.21-24.49,79.93-57.62,118.34-89.66C892,393.7,948.32,346.7,1006.75,323.9c61.06-23.83,125.2-21.59,190.62,6.66C1258.91,357.13,1319,405.4,1376,474c7.67,9.24,15.42,19,22.91,28.4,30.22,38,61.46,77.26,96.18,94.34,32.81,16.14,68.47,12.46,106-10.94,32.59-20.33,65.58-54.69,98.05-102.13s62.53-103.53,91.61-157.79c24.34-45.4,49.5-92.35,76-134,32.06-50.51,64.15-88.65,95.38-113.36,36.71-29.06,72.24-39.46,105.6-30.88l0,.88c-33.32-8.56-68.8,1.82-105.47,30.85-31.2,24.69-63.26,62.8-95.29,113.26-26.45,41.67-51.61,88.61-76,134-29.09,54.27-59.17,110.39-91.64,157.84s-65.52,81.88-98.14,102.23C1578.94,600.58,1557.34,607.53,1536.6,607.53Z"/><path class="cls-1" d="M1527.38,620.73a90,90,0,0,1-40.68-9.85c-34.77-17.39-66.15-57.78-96.5-96.83-7.53-9.69-15.31-19.71-23-29.2C1310,414.37,1249.81,365,1188.32,338c-65.36-28.63-129.3-30.37-190.06-5.17C940.12,357,884.17,406.12,830.06,453.64c-38.16,33.5-77.62,68.15-117.62,93.87-52.59,33.81-105.09,46.68-151.81,37.22-54.94-11.13-100-52-134-121.51-4.77-9.76-9.4-20.26-13.87-30.42-9.49-21.54-19.3-43.82-31-60.08-11.87-16.47-25.88-26.46-40.51-28.89S312,346.62,299,358.94c-14.28,13.57-26.71,35.2-38.73,56.12-7.69,13.39-15.65,27.25-24.06,38.93-34.25,47.6-80,56.21-122.31,23-17.4-13.63-33.63-34.21-46.94-59.5C52.77,390.6,42,359,34.79,323.46c-9.25-45.83-13-96.28-16.66-145.07C14.86,134.69,11.48,89.5,4.18,47.7-5.11-5.52-25.8-53.08-48.53-73.47-65.95-89.1-82.72-87.45-97-68.7l-.16-.79C-82.79-88.35-65.93-90-48.42-74.31-25.6-53.84-4.83-6.09,4.5,47.33c7.31,41.91,10.7,87.15,14,130.9C22.11,227,25.88,277.34,35.1,323.05,49,392,77.76,447.78,114,476.18c42.25,33.11,87.87,24.53,122-23,8.39-11.66,16.35-25.5,24-38.89,12-20.94,24.48-42.6,38.8-56.21,13-12.37,27.67-17.62,42.35-15.17s28.74,12.47,40.65,29c11.76,16.31,21.59,38.62,31.09,60.19,4.47,10.15,9.09,20.65,13.86,30.4,33.95,69.38,79,110.2,133.85,121.31,46.68,9.46,99.14-3.4,151.7-37.19,40-25.71,79.43-60.35,117.58-93.85C884.07,405.27,940,356.12,998.21,332c60.79-25.21,124.77-23.48,190.17,5.17,61.52,26.95,121.73,76.37,179,146.9,7.7,9.49,15.49,19.51,23,29.2,30.33,39,61.69,79.38,96.41,96.74,32.81,16.41,68.35,12.28,105.64-12.27,32.41-21.33,65.14-57.19,97.28-106.59s61.84-107.7,90.57-164.11c24-47.21,48.9-96,75.08-139.41,31.72-52.55,63.53-92.31,94.55-118.17C1986.36,39,2021.74,28,2055.07,36.53l0,.89c-33.28-8.56-68.62,2.5-105,32.87-31,25.84-62.77,65.56-94.46,118.08-26.17,43.36-51,92.16-75.06,139.36-28.74,56.43-58.45,114.78-90.6,164.18s-64.93,85.32-97.37,106.68C1570.09,613.34,1548.31,620.73,1527.38,620.73Z"/><path class="cls-1" d="M1518.22,633.94a87.09,87.09,0,0,1-39.88-9.84c-34.78-17.67-66.28-59.16-96.76-99.27-7.55-10-15.36-20.23-23.09-30C1301.08,422.49,1240.8,372,1179.34,344.65c-65.34-29-129.14-30.27-189.62-3.7-57.87,25.44-113.44,76.73-167.18,126.32-37.9,35-77.08,71.14-116.85,98.07-52.3,35.42-104.6,49.18-151.25,39.81-54.86-11-100.05-52.9-134.32-124.45-4.81-10.05-9.48-20.87-14-31.34-9.56-22.18-19.46-45.12-31.24-61.83C363,370.62,349,360.41,334.34,358s-29.15,3.13-42,16c-14.18,14.15-26.47,36.62-38.35,58.35-7.61,13.92-15.48,28.31-23.81,40.46-16.79,24.51-36.89,39.66-58.13,43.81-20.25,4-41.49-2-61.42-17.1-37.51-28.52-67.39-86.8-82-159.89-9.46-47.29-13.47-99.41-17.35-149.81C7.77,144.68,4.18,98-3.31,54.83-8,27.7-15.6,1.5-25.23-20.95-35-43.73-46.22-61-57.68-71c-17-14.85-33.33-12.63-47.15,6.41l-.17-.78c13.91-19.16,30.31-21.4,47.43-6.47,11.5,10,22.77,27.41,32.57,50.26C-15.33.93-7.72,27.23-3,54.47c7.51,43.25,11.11,90,14.59,135.19,3.88,50.34,7.89,102.4,17.32,149.57,14.56,72.89,44.37,131,81.79,159.45,19.89,15.12,41.08,21,61.29,17.07,21.19-4.15,41.24-19.26,58-43.7,8.31-12.13,16.17-26.51,23.78-40.41,11.9-21.76,24.2-44.26,38.43-58.46,12.92-12.89,27.51-18.44,42.17-16.05s28.73,12.65,40.69,29.63c11.82,16.76,21.73,39.73,31.31,61.95,4.51,10.45,9.18,21.27,14,31.31,34.21,71.43,79.34,113.23,134.12,124.24,46.62,9.37,98.88-4.38,151.14-39.78,39.75-26.92,78.93-63.07,116.82-98,53.76-49.61,109.34-100.91,167.25-126.36,60.51-26.6,124.34-25.36,189.73,3.69,61.5,27.32,121.8,77.89,179.25,150.29,7.72,9.75,15.54,20,23.09,30,30.45,40.09,61.94,81.54,96.67,99.19,32.8,16.68,68.24,12.1,105.31-13.61,32.22-22.34,64.69-59.69,96.5-111s61.15-111.88,89.52-170.45c23.75-49,48.3-99.69,74.2-144.77,31.38-54.61,62.91-96,93.73-123,36.23-31.76,71.47-43.51,104.76-34.95l0,.88c-33.24-8.55-68.43,3.19-104.61,34.91-30.78,27-62.29,68.32-93.64,122.88-25.89,45.06-50.44,95.73-74.18,144.73-28.38,58.58-57.73,119.17-89.55,170.52s-64.35,88.78-96.6,111.13C1561.27,626.11,1539.33,633.93,1518.22,633.94Z"/><rect class="cls-2" x="-154.63" y="-405.61" width="1994.19" height="1289.4"/></g></svg>