<svg id="Layer_1" data-name="Layer 1" xmlns="http://www.w3.org/2000/svg" viewBox="0 0 250 250"><defs><style>.cls-1{fill:#175275;}.cls-2{fill:#fff;fill-rule:evenodd;}</style></defs><title>favicon-250-250</title><rect class="cls-1" width="250" height="250"/><path class="cls-2" d="M130.9,41.79c-26.75-5.79-66.61-8-96.16,1.41C10.63,50.84-4.18,66.82,17.93,88.57c24.12,20,48.23,24.09,72.34,25.59-.68,13.9,6,29.36,16.43,39.92,12.23,12.39,32.51,18,49.9,17.78,21-.32,43.06-8.13,56.88-22.3.17,31.88-3.33,52.56-9.09,66.37-3,8.36-9.43,11.82-12.46,8.14-3.5-4.26-.53-21,1.56-25.84C184,206.9,178.07,217.37,177,230.31c-.67,8.23-1.38,20.56,11.2,13.43,18.07-12.35,30.94-29.21,37.16-51.83,4.13-22.76,6.6-46.61,4.43-71.85-16.56,34.38-47.7,49.34-80.24,46.57-23.37-4.13-35.27-22.07-30.22-56.57,34.57-10.29,67.82-24.34,98.1-46.93,26-21.93,33.25-45.09,11.21-55.61C217,2,204.31,2.12,191.84,4.61c-25.05,5-43.14,20.88-60.94,37.18Zm-6.61,5.53c-19,17.85-31.81,37.55-33.69,60.52-22.31-2.08-44.72-4-59.42-17.92C18.53,78,18.47,61.61,35.11,52.54,55.83,42.18,87,41.79,124.29,47.32Zm20.41-1.21c15.53-20,32.14-32.37,49.46-36.86,10.6-2.74,24.61-3,34.45,2.33S239.07,26,233.63,38c-14.93,27.52-56.08,49.22-114.95,67,6.12-20.49,13.75-39.12,23.62-55,7,.86,9.71,1.5,16,4.11C156.19,51.17,151.12,48.55,144.7,46.11Z"/></svg>