<svg fill="#64b5f6" xmlns="http://www.w3.org/2000/svg"  viewBox="0 0 30 30" width="30px" height="30px">    <path d="M 4 5 C 2.895 5 2 5.895 2 7 L 2 23 C 2 24.105 2.895 25 4 25 L 26 25 C 27.105 25 28 24.105 28 23 L 28 7 C 28 5.895 27.105 5 26 5 L 4 5 z M 4.8164062 12.347656 L 6.5332031 12.347656 L 8.8027344 17.443359 L 8.8027344 12.347656 L 10.839844 12.347656 L 12.427734 15.896484 L 14.021484 12.347656 L 16.095703 12.347656 L 16.095703 17.640625 L 14.798828 17.640625 L 14.798828 13.777344 L 13.019531 17.640625 L 11.839844 17.640625 L 10.103516 13.710938 L 10.103516 17.640625 L 7.4863281 17.640625 L 6.9726562 16.457031 L 4.3789062 16.457031 L 3.8710938 17.640625 L 2.5 17.640625 L 4.8164062 12.347656 z M 17.796875 12.347656 L 22.917969 12.347656 L 24.357422 14.001953 L 25.845703 12.359375 L 27.5 12.359375 L 25.173828 14.935547 L 27.482422 17.650391 L 25.833984 17.650391 L 24.310547 15.890625 L 22.751953 17.640625 L 17.796875 17.640625 L 17.796875 12.347656 z M 5.6425781 13.464844 L 4.8671875 15.314453 L 6.4492188 15.314453 L 5.6425781 13.464844 z M 19.078125 13.488281 L 19.078125 14.478516 L 21.943359 14.478516 L 21.943359 15.484375 L 19.078125 15.484375 L 19.078125 16.529297 L 22.072266 16.529297 L 23.501953 14.935547 L 22.238281 13.496094 L 19.078125 13.488281 z"/></svg>