<svg id="Layer_1" data-name="Layer 1" xmlns="http://www.w3.org/2000/svg" viewBox="0 0 62 46" width="30px" height="30px"><defs><style>.cls-1{fill:#fff;}.cls-2{fill:#64b5f6;}</style></defs><title>JCB-62px</title><rect class="cls-1" width="62" height="46" rx="2.9"/><path class="cls-2" d="M29.77,2.51A7.77,7.77,0,0,0,22,10.31v8.25c2.74-2.38,8.06-3.71,16.15-1.95L38,19.67s-4.92-3.22-9.68-.89-1.94,8.74,2.93,9S38,26.24,38,26.24V29s-10.51,2.91-16-1.61V43.49H32.84a6.84,6.84,0,0,0,6.82-6.85V2.51Z"/><path class="cls-2" d="M50.92,19.9a1.72,1.72,0,0,0-1.72-1.73H45.06v3.45H49.2A1.72,1.72,0,0,0,50.92,19.9Z"/><path class="cls-2" d="M45.06,23.79v3.45H49.2a1.73,1.73,0,0,0,0-3.45Z"/><path class="cls-2" d="M49.16,2.51a7.78,7.78,0,0,0-7.76,7.8v5.8H53.49a3.37,3.37,0,0,1,0,6.74,3.37,3.37,0,0,1,0,6.73H41.4V43.49H52.23A6.83,6.83,0,0,0,59,36.64V2.51Z"/><path class="cls-2" d="M10.71,2.51A7.77,7.77,0,0,0,3,10.31V26.24c9,3.31,9.84-.28,9.84-1.75V16.11h6.37v9.35c-1,6.49-15,4-16.21,3.74V43.49H13.78a6.83,6.83,0,0,0,6.82-6.85V2.51Z"/></svg>