<svg fill="#64b5f6" xmlns="http://www.w3.org/2000/svg"  viewBox="0 0 50 50" width="30px" height="30px"><path d="M 5 7 C 2.242188 7 0 9.242188 0 12 L 0 38 C 0 40.757813 2.242188 43 5 43 L 45 43 C 47.757813 43 50 40.757813 50 38 L 50 12 C 50 9.242188 47.757813 7 45 7 Z M 23 15 L 26 15 C 31.523438 15 36 19.476563 36 25 C 36 30.523438 31.523438 35 26 35 L 23 35 C 17.484375 35 13 30.515625 13 25 C 13 19.484375 17.484375 15 23 15 Z M 23 17 C 18.589844 17 15 20.589844 15 25 C 15 29.410156 18.589844 33 23 33 C 27.410156 33 31 29.410156 31 25 C 31 20.589844 27.410156 17 23 17 Z M 21.34375 20.3125 L 21.34375 29.6875 C 19.398438 29.003906 18 27.179688 18 25 C 18 22.820313 19.398438 20.996094 21.34375 20.3125 Z M 24.65625 20.3125 C 26.601563 20.996094 28 22.820313 28 25 C 28 27.179688 26.601563 29.003906 24.65625 29.6875 Z"/></svg>