<?xml version="1.0" encoding="utf-8"?>
<!-- Generator: Adobe Illustrator 25.2.0, SVG Export Plug-In . SVG Version: 6.00 Build 0)  -->
<svg version="1.1" id="Layer_1" xmlns="http://www.w3.org/2000/svg" xmlns:xlink="http://www.w3.org/1999/xlink" x="0px" y="0px"
	 viewBox="0 0 500 500" style="enable-background:new 0 0 500 500;" xml:space="preserve">
<style type="text/css">
	.st0{fill:#FFFFFF;}
</style>
<g>
	<path d="M87.24,243.53c2.76-3.92,6.82-4.47,11.2-4.47c28.79,0.03,57.59,0.01,86.38,0.02c5.67,0,8.34,1.81,9.67,6.47
		c1.54,5.4-0.4,10.95-4.52,12.66c-0.92,0.39-2,0.55-3.01,0.55c-30.59,0.03-61.19-0.02-91.78,0.07c-3.69,0.01-5.99-1.78-7.94-4.5
		C87.24,250.74,87.24,247.14,87.24,243.53z"/>
	<path d="M222.67,150.05c26.39,0,52.78-0.01,79.16,0.01c8.07,0.01,13.51,4.99,14.2,12.48c0.79,8.48,0.7,17.06,0.69,25.6
		c0,3.03,0.79,4.1,3.91,3.95c5.07-0.25,10.18-0.24,15.26-0.03c12.47,0.51,21.79,6.01,27.31,17.53c4.1,8.54,8.48,16.95,12.68,25.44
		c3.49,7.04,10.26,8.98,16.96,11.02c2.77,0.84,5.63,1.39,8.41,2.19c7.15,2.05,10.33,7.03,10.75,14.82
		c0.83,15.4,0.76,30.85,0.74,46.27c-0.01,6.52-7.59,13.46-14.45,13.66c-6.35,0.18-12.72-0.02-19.07,0.07
		c-2.17,0.03-2.68-0.9-2.68-2.87c-0.03-17.38-13.35-32.28-30.22-35.4c-20.73-3.83-40.55,11.38-42.9,31.23
		c-0.08,0.71-0.45,1.39-0.57,2.1c-0.86,4.91-0.85,4.91-5.7,4.91c-22.57,0-45.15-0.04-67.72,0.06c-2.75,0.01-3.55-0.74-3.66-3.56
		c-0.33-8.93-3.57-16.67-9.78-23.3c-8.03-8.57-17.82-12.62-29.41-11.92c-8.18,0.49-15.46,3.42-21.72,9.02
		c-7.08,6.33-11.15,14.13-12.72,23.37c-0.34,2.03,0.03,5.16-1.1,5.85c-1.73,1.05-4.48,0.47-6.8,0.48
		c-4.06,0.02-8.14,0.41-11.92-1.87c-5.53-3.33-8.76-7.99-8.82-14.5c-0.1-11.44-0.03-22.89-0.03-34.34c0-4.96,1.56-6.51,6.61-6.51
		c18.44-0.01,36.88,0,55.32-0.01c7.39-0.01,13.56-4.42,15.25-10.6c2.04-7.46,0.34-15.41-5.43-19.51c-2.38-1.69-5.71-2.79-8.62-2.83
		c-18.65-0.25-37.3-0.14-55.95-0.11c-2.6,0-5.83-0.02-6.55-2.57c-0.83-2.94-0.41-6.39,0.22-9.47c0.19-0.92,2.87-1.87,4.42-1.89
		c15.68-0.14,31.37-0.08,47.05-0.08c12.4,0,24.8,0,37.2,0c8.39,0,13.44-4.61,14.86-12.89c1.08-6.32,0-11.78-4.75-16.25
		c-3.32-3.12-7.55-3.88-11.86-3.89c-27.45-0.06-54.9-0.03-82.34-0.03c-4.29,0-5.39-1.08-5.4-5.33c-0.01-4.13,0.35-8.3-0.08-12.39
		c-0.96-9.12,6.76-15.69,14.52-17.19c2.75-0.53,5.62-0.66,8.43-0.67C171.8,150.03,197.24,150.05,222.67,150.05z M366.94,245.2
		c-4.69-9.38-9.15-18.19-13.51-27.05c-3.56-7.24-9.5-11.71-17.12-13.25c-5.28-1.07-10.88-0.5-16.33-0.83
		c-2.59-0.16-3.25,0.85-3.22,3.3c0.11,11.54,0.11,23.08,0,34.62c-0.02,2.54,0.58,3.53,3.35,3.51c14.61-0.13,29.22-0.06,43.83-0.07
		C364.84,245.43,365.73,245.3,366.94,245.2z"/>
	<path d="M163.8,192.66c15.58,0,31.17,0.23,46.74-0.09c8.28-0.17,11.48,2.65,10.95,11.19c-0.18,2.95-0.87,5.54-3.37,6.99
		c-1.71,0.99-3.93,1.56-5.92,1.57c-32.43,0.09-64.86,0.18-97.3-0.03c-6.64-0.04-8.17-2.21-9.13-7.36
		c-1.19-6.42,0.99-10.57,5.64-11.92c0.98-0.28,2.06-0.33,3.1-0.33C130.94,192.65,147.37,192.66,163.8,192.66z"/>
	<path d="M160.37,321.01c-0.49-17.08,13.66-29.08,28.73-28.91c15.49,0.17,29.83,12.24,28.62,31.68
		c-0.77,12.35-13.04,27.26-30.91,26.11C173.93,349.06,159.24,336.61,160.37,321.01z M201.07,321.12c0-6.32-5.62-12.03-11.92-12.09
		c-6.48-0.06-12.25,5.62-12.25,12.07c0,6.32,5.62,12.03,11.92,12.09C195.3,333.26,201.06,327.58,201.07,321.12z"/>
	<path d="M340.11,349.73c-16,0.86-29.97-13.3-29.06-29.8c0.91-16.44,13.14-27.89,28.67-27.75c16.77,0.15,28.55,11.41,29.01,28.83
		C369.15,336.31,356.86,349.97,340.11,349.73z M351.78,321.27c0.01-6.74-5.28-12.29-11.78-12.23c-6.73,0.06-12.13,4.81-12.3,11.95
		c-0.16,6.86,5.87,12.16,12.07,12.21C346.37,333.25,352.53,326.43,351.78,321.27z"/>
</g>
</svg>
