<svg id="Layer_1" data-name="Layer 1" xmlns="http://www.w3.org/2000/svg" viewBox="0 0 200 80"><defs><style>.cls-1,.cls-3{fill:#231f20;}.cls-2{fill:#0078b6;}.cls-3{fill-rule:evenodd;}</style></defs><title>Gerdent-logo-200-80</title><path class="cls-1" d="M190.68,51.7,189.94,57h-4l4.43-24h5.14L200,57h-4l-.73-5.33Zm2.25-13.9-1.65,10.31h3.35L193,37.8Zm-7.81.69L181.2,39a3.18,3.18,0,0,0-.75-2,2,2,0,0,0-1.46-.63,1.94,1.94,0,0,0-1.55.61,2.53,2.53,0,0,0-.53,1.72,3.2,3.2,0,0,0,.82,2.24c.54.59,1.57,1.54,3.06,2.84a19.35,19.35,0,0,1,3.4,3.64,6.74,6.74,0,0,1,1.14,3.88,5.83,5.83,0,0,1-1.78,4.53,6.84,6.84,0,0,1-4.77,1.62,5.56,5.56,0,0,1-4.41-1.89,7.67,7.67,0,0,1-1.8-4.76l3.94-.56a5.27,5.27,0,0,0,.78,2.69,2,2,0,0,0,1.7.93,2.53,2.53,0,0,0,1.75-.57,2.08,2.08,0,0,0,.65-1.64,3.89,3.89,0,0,0-1-2.65,29.45,29.45,0,0,0-3.12-2.9,18,18,0,0,1-3.25-3.42A6.8,6.8,0,0,1,173,38.65a6.51,6.51,0,0,1,.75-3.23,4.84,4.84,0,0,1,2.2-2,8,8,0,0,1,3.46-.69,5.51,5.51,0,0,1,2.88.73,5.3,5.3,0,0,1,2,2A7.67,7.67,0,0,1,185.12,38.49ZM157.85,51V33H162V51.13a3,3,0,0,0,.54,2,2,2,0,0,0,1.66.66,2,2,0,0,0,1.67-.66,3.08,3.08,0,0,0,.54-2V33h4.14V51a6.36,6.36,0,1,1-12.7,0Z"/><path class="cls-1" d="M69.51,56.94H65.39V37.27h3.94v2.3h.07a5.49,5.49,0,0,1,2-2,5.33,5.33,0,0,1,2.67-.68h.84V41.2a12.22,12.22,0,0,0-2.64-.38,3,3,0,0,0-2,.68,2.35,2.35,0,0,0-.81,1.91ZM62.67,44.22v3.66H54v2.83a4.3,4.3,0,0,0,.56,2.46,2.33,2.33,0,0,0,3.44,0,4.23,4.23,0,0,0,.56-2.46v-.44h4.12q-.14,7-6.39,7c-2.23,0-3.85-.64-4.88-1.94A8.44,8.44,0,0,1,49.87,50V44.23a8.5,8.5,0,0,1,1.53-5.4q1.51-1.92,4.88-1.92a7.39,7.39,0,0,1,3,.53,5,5,0,0,1,2,1.48,6,6,0,0,1,1.09,2.3A12.11,12.11,0,0,1,62.67,44.22ZM54,44.51h4.57v-1c0-2.12-.77-3.19-2.29-3.19S54,41.34,54,43.46Z"/><path class="cls-2" d="M155.34,50.66A16.2,16.2,0,0,1,153,52.8a43.66,43.66,0,0,1-5.29,3.68,10,10,0,0,1-4.76,1.73c-1,0-1.64-.26-1.92-.77a3.1,3.1,0,0,1-.42-1.5,14.69,14.69,0,0,1,.95-4.32c.63-1.86,1-2.81,1-2.84l-1.55.7c-.29.23-.75.62-1.37,1.18V49.09l4-3c1.57-1.16,2.22-2,1.95-2.53-.12-.2-.54-.31-1.28-.31h-1c-.33,0-.5,0-.53-.13-.18-.49.12-1.25.88-2.27a6.58,6.58,0,0,1,1.8-1.83,6.26,6.26,0,0,1,2.12-.39,7.16,7.16,0,0,0,1.81-.24,8.76,8.76,0,0,0,1.66-1.77,17.67,17.67,0,0,1,1.64-1.83,4.16,4.16,0,0,1,1.82-.35,1.6,1.6,0,0,1,.86.15.52.52,0,0,1,.2.42,4.25,4.25,0,0,1-1,1.87c-.69.91-1,1.43-.91,1.57a.8.8,0,0,0,.71.27h.53c.33,0,.49.11.49.35a5,5,0,0,1-1.35,2.48,6.69,6.69,0,0,1-2.06,2,4,4,0,0,1-1.37.24h-.53c-.68,0-1.1.09-1.24.26q-1.82,3-2.77,4.76a7.74,7.74,0,0,0-.95,3.66,2.28,2.28,0,0,0,.42,1.6,1.21,1.21,0,0,0,.82.41,8.29,8.29,0,0,0,4.16-1.79q2.61-1.78,5-3.66Zm-14.13,0c0,.35-1.56,1.71-4.69,4.1s-5.22,3.58-6.28,3.58a2.21,2.21,0,0,1-2-.94,4.37,4.37,0,0,1-.62-2.47,8.86,8.86,0,0,1,1.46-3.86c1-1.7,1.4-2.61,1.28-2.73s-.74.3-1.79,1.4-1.76,1.86-2.15,2.25-1.17,1.34-2.37,2.83-2.2,2.19-3,2.08q-.93-.09-1.41-1.86a14.12,14.12,0,0,1-.49-3.82,10.23,10.23,0,0,1,2.28-5.89q2.28-3.13,3.12-3.42a5.58,5.58,0,0,1,1.81-.28,6.37,6.37,0,0,1,1,.06,1.47,1.47,0,0,1,.6.26.6.6,0,0,1,.27.5c0,.59-.87,1.87-2.59,3.87s-2.59,3.25-2.59,3.77a.45.45,0,0,0,.18.39c.23.18,1-.48,2.45-2s2.61-2.71,3.63-3.62a30.11,30.11,0,0,1,4-3,8.52,8.52,0,0,1,3.54-1.59c.3,0,.59.27.89.83a3.75,3.75,0,0,1,.44,1.78,2.13,2.13,0,0,1-.2,1,26.43,26.43,0,0,1-2,2.64,24.13,24.13,0,0,0-2.33,3.23,9.55,9.55,0,0,0-.66,1.49,3.4,3.4,0,0,0-.16,1c0,.58.25.87.76.87a7.24,7.24,0,0,0,3.4-1.33q2.17-1.34,4.16-2.68Zm-25.72-9.21c-.12-.14-.57,0-1.37.44A11.24,11.24,0,0,0,112,43.41a10.25,10.25,0,0,0-1.77,2.14c-.53.85-.69,1.37-.49,1.57s.71,0,1.6-.59a15.74,15.74,0,0,0,2.34-1.81,8.94,8.94,0,0,0,1.6-1.94C115.61,42.13,115.7,41.68,115.49,41.45Zm5.8,9.21c0,.3-1.56,1.42-4.67,3.39S111,57,109.12,57a3.82,3.82,0,0,1-3.54-2.16,8.91,8.91,0,0,1-1.2-4.35A10,10,0,0,1,109,42.13c3.06-2.2,5.57-3.3,7.55-3.3a2.69,2.69,0,0,1,2,.57,1.8,1.8,0,0,1,.53,1.27q0,2.58-2.79,4.95c-4.24,2.48-6.55,3.83-6.92,4.07a1.05,1.05,0,0,0-.56.92,2.31,2.31,0,0,0,.85,1.66,3.33,3.33,0,0,0,2.39.79q1.77,0,5.53-1.94c2.51-1.3,3.76-2,3.76-2ZM103.62,38.37c0-2.13-1.18-3.7-3.56-4.73a17.47,17.47,0,0,0-6.93-1.53c-.85,0-1.33.25-1.43.75a11.4,11.4,0,0,1-1.82,3c-1.11,1.51-2.26,3.1-3.45,4.79s-2.5,3.6-3.92,5.73S80.39,50,80.39,50.88a1.15,1.15,0,0,0,.64,1,5.53,5.53,0,0,0,2.54.39,27.17,27.17,0,0,0,13.08-3.85Q103.63,44.58,103.62,38.37Zm2.79-.83A14,14,0,0,1,102,47.61a31,31,0,0,1-10.41,6.93A28,28,0,0,1,81.23,57a12.13,12.13,0,0,1-3.61-.43c-.9-.29-1.39-.73-1.46-1.31s-.11-1-.11-1.23a10.71,10.71,0,0,1,1.53-4.85,50.62,50.62,0,0,1,3.36-5.42c1.23-1.72,2.14-3,2.74-3.74s1.68-2.1,3.21-4,2.3-3,2.3-3.3a.37.37,0,0,0-.22-.31q-1-.48-5.17.83l-1.6,1.44c-.79.41-1.59.8-2.39,1.18a14,14,0,0,1-4,.91,1.12,1.12,0,0,1-.67-.17c-.14-.12-.22-.44-.22-1a13,13,0,0,1,.42-3.06,5.25,5.25,0,0,1,1.46-2.66A18.59,18.59,0,0,1,82,27.45a30.32,30.32,0,0,1,10.36-1.53q6.38,0,10.2,2.82T106.41,37.54Z"/><path class="cls-3" d="M28.37,25.6c3.2-4.32,6.62-7,10.19-7.94a10.07,10.07,0,0,1,7.11.5c2,1.13,2.15,3.12,1,5.69C43.62,29.78,35.14,34.46,23,38.29a50.83,50.83,0,0,1,4.87-11.85,9.78,9.78,0,0,1,3.31.89,6.49,6.49,0,0,0-2.81-1.73m-4.21.26c-3.92,3.85-6.56,8.09-6.94,13C12.62,38.45,8,38,5,35c-2.61-2.57-2.62-6.1.81-8C10.05,24.75,16.46,24.67,24.16,25.86Zm1.36-1.19C20,23.42,11.79,23,5.7,25c-5,1.65-8,5.09-3.47,9.78,5,4.31,10,5.19,14.92,5.51a12.36,12.36,0,0,0,3.38,8.61c2.53,2.66,6.71,3.88,10.29,3.83a16.76,16.76,0,0,0,11.73-4.81c0,6.87-.69,11.33-1.88,14.3-.62,1.8-1.94,2.55-2.56,1.76s-.11-4.52.32-5.57A10.42,10.42,0,0,0,35,65.29c-.14,1.77-.28,4.43,2.31,2.89A19.32,19.32,0,0,0,45,57a60.57,60.57,0,0,0,.91-15.48c-3.41,7.4-9.83,10.63-16.54,10-4.82-.89-7.27-4.76-6.23-12.19A62,62,0,0,0,43.36,29.27c5.36-4.73,6.86-9.72,2.31-12a11.35,11.35,0,0,0-7.58-.63C32.92,17.74,29.19,21.16,25.52,24.67Z"/></svg>